<?xml version="1.0" encoding="UTF-8" standalone="no"?>
<!-- Created with Inkscape (http://www.inkscape.org/) -->

<svg
   version="1.1"
   id="svg1"
   width="1117.639"
   height="627.43542"
   viewBox="0 0 1117.639 627.43542"
   sodipodi:docname="Java_Powered_Logo.svg"
   inkscape:version="1.3 (0e150ed6c4, 2023-07-21)"
   xmlns:inkscape="http://www.inkscape.org/namespaces/inkscape"
   xmlns:sodipodi="http://sodipodi.sourceforge.net/DTD/sodipodi-0.dtd"
   xmlns="http://www.w3.org/2000/svg"
   xmlns:svg="http://www.w3.org/2000/svg">
  <defs
     id="defs1" />
  <sodipodi:namedview
     id="namedview1"
     pagecolor="#ffffff"
     bordercolor="#000000"
     borderopacity="0.25"
     inkscape:showpageshadow="2"
     inkscape:pageopacity="0.0"
     inkscape:pagecheckerboard="0"
     inkscape:deskcolor="#d1d1d1"
     inkscape:zoom="0.97227191"
     inkscape:cx="547.68629"
     inkscape:cy="293.64213"
     inkscape:window-width="1920"
     inkscape:window-height="1011"
     inkscape:window-x="0"
     inkscape:window-y="0"
     inkscape:window-maximized="1"
     inkscape:current-layer="g1" />
  <g
     inkscape:groupmode="layer"
     inkscape:label="Image"
     id="g1"
     transform="translate(-11.890285,-97.318153)">
    <path
       style="fill:#000000"
       d="m 595.37229,724.09224 c -1.27049,-0.34007 -1.73516,-2.43775 -2.24483,-10.134 -0.79855,-12.05859 -0.66019,-53.60799 0.20548,-61.70515 l 0.64147,-6 8,-0.3054 c 10.53675,-0.40223 22.83239,1.3038 28.23061,3.91704 11.46165,5.54848 14.63181,23.234 6.32814,35.30298 -3.93072,5.71309 -10.98161,9.21208 -21.71636,10.77669 l -8.12195,1.18378 -0.61022,4.45203 c -0.33562,2.44861 -0.61022,8.39107 -0.61022,13.20546 0,7.0595 -0.3061,8.8709 -1.58179,9.36043 -1.71583,0.65843 -5.95952,0.6316 -8.52033,-0.0539 z m 25.28877,-39.02115 c 5.46206,-3.19881 7.31335,-6.69668 7.31335,-13.818 0,-4.85055 -0.48988,-7.02116 -2.07108,-9.17667 -3.06344,-4.17611 -8.04142,-6.31998 -14.67892,-6.32178 l -5.75,-0.002 v 12.875 c 0,7.08125 0.29245,14.33724 0.64989,16.12443 l 0.64988,3.24944 5.39129,-0.55643 c 2.96521,-0.30604 6.78823,-1.37454 8.49559,-2.37444 z m 50.31335,38.81071 c -7.63289,-2.02048 -14.07609,-7.63666 -17.40285,-15.16909 -3.02441,-6.84786 -4.50224,-21.40641 -3.17447,-31.27255 2.79847,-20.79421 13.94326,-31.70225 32.36483,-31.6773 11.32662,0.0153 20.17364,5.24617 25.15046,14.87028 3.23368,6.25325 4.48441,23.96284 2.60857,36.9358 -2.31648,16.02033 -13.13623,26.01046 -28.97389,26.75228 -4.16496,0.19508 -8.92265,-0.003 -10.57265,-0.43942 z m 14.60078,-9.26477 c 1.86957,-0.62484 4.63542,-2.28279 6.14634,-3.68433 6.54394,-6.07026 9.39408,-23.35982 6.24978,-37.91253 -3.01641,-13.96082 -6.58829,-17.64208 -17.11792,-17.64208 -7.73839,0 -10.81684,1.86266 -14.19163,8.58684 -6.15789,12.2694 -4.78,37.17665 2.53773,45.87328 4.50429,5.35305 9.92466,6.93484 16.3757,4.77882 z m 55.09749,8.87496 c -1.73848,-2.09474 -7.98377,-23.86352 -13.69182,-47.72461 -5.00904,-20.93909 -5.90418,-25.5229 -5.61714,-28.76429 0.12149,-1.37197 10.63406,-1.8308 11.45571,-0.5 0.25469,0.4125 3.25466,12.9 6.66662,27.75 6.43221,27.99518 7.63171,31.91486 9.00004,29.4099 0.42359,-0.77544 3.53953,-13.5599 6.92431,-28.4099 4.181,-18.34326 6.6819,-27.40077 7.8002,-28.25 1.8185,-1.38095 8.07142,-1.65931 9.98344,-0.44444 0.6708,0.42621 1.89032,3.9633 2.71006,7.8602 1.55152,7.37565 11.32679,47.77361 12.15956,50.25146 1.11174,3.30785 2.65584,-1.80773 7.98243,-26.44559 3.08822,-14.2844 6.23604,-27.46059 6.99517,-29.28042 1.29383,-3.10167 1.64792,-3.28946 5.65669,-3 l 4.27646,0.30879 -0.17448,4.10041 c -0.3633,8.53796 -16.53548,70.4667 -19.06143,72.99264 -1.75773,1.75773 -10.63651,1.87343 -12.04468,0.15695 -0.56401,-0.6875 -3.92633,-12.85446 -7.47182,-27.0377 -3.54548,-14.18323 -6.8311,-25.88323 -7.30138,-26 -0.47027,-0.11676 -1.48686,2.4877 -2.25907,5.7877 -7.8824,33.68474 -11.2457,46.06965 -12.82437,47.224 -2.24771,1.64357 -9.80446,1.65365 -11.1645,0.0149 z m 87.90947,0.34885 c -1.1351,-0.71879 -1.48446,-7.90943 -1.89142,-38.93014 l -0.49917,-38.04852 2.39143,-0.59006 c 1.31528,-0.32453 9.81642,-0.46158 18.89142,-0.30455 l 16.5,0.28552 0.30479,4.75 0.30479,4.75 H 851.5292 838.47441 v 12 12 l 8.25,0.0997 c 10.5036,0.12691 13.16018,0.85996 13.57676,3.74636 0.61749,4.27835 -1.32757,5.15394 -11.4492,5.15394 h -9.37756 v 13 13 h 12.5 12.5 v 4.35754 4.35755 l -6.14669,0.64245 c -8.92634,0.93299 -28.12108,0.75889 -29.74557,-0.26979 z m 51.89226,-38.58775 v -39.5 l 10.75,0.008 c 24.79943,0.0174 34.90891,4.86661 36.82818,17.66524 1.37601,9.1759 -2.98273,17.19956 -11.87161,21.85349 l -5.43532,2.84575 3.0447,5.06399 c 11.71435,19.48348 17.55199,29.96864 17.09594,30.70655 -0.70219,1.13616 -7.65118,1.09715 -10.69481,-0.06 -1.6627,-0.63215 -5.25844,-5.72457 -11.56277,-16.37562 -13.93956,-23.55061 -14.62847,-23.59592 -15.66065,-1.03001 -0.39807,8.7027 -1.17709,16.3856 -1.73116,17.0731 -0.55725,0.69146 -3.18684,1.25 -5.88494,1.25 h -4.87756 z m 31.31941,-8.35788 c 2.86234,-2.86234 3.18059,-3.77674 3.18059,-9.13862 0,-5.0937 -0.37984,-6.33789 -2.61831,-8.57635 -2.15351,-2.15351 -4.00741,-2.77409 -10.44352,-3.49587 -4.30387,-0.48266 -7.92335,-0.77715 -8.04329,-0.65442 -0.11994,0.12273 -0.5473,6.02219 -0.94969,13.10992 l -0.73163,12.88677 8.21264,-0.47542 c 7.60196,-0.44007 8.44913,-0.71192 11.39321,-3.65601 z m 34.43059,47.16855 c -1.62889,-0.42567 -1.75,-3.15293 -1.75,-39.40655 v -38.94924 l 18.25,0.27256 18.25,0.27256 0.30479,4.75 0.30479,4.75 H 968.5292 955.47441 v 12 12 h 10.5 10.5 v 4.5 4.5 h -10 -10 v 13 13 h 13 13 v 4.38337 c 0,3.70039 -0.35058,4.47732 -2.25,4.98634 -2.56311,0.68689 -31.33682,0.63693 -34,-0.059 z m 53.41904,-0.18503 c -1.63706,-1.03779 -2.77137,-53.11478 -1.48387,-68.12564 l 0.81483,-9.5 12.99999,0.10343 c 10.7794,0.0858 13.9601,0.47411 18.6208,2.27351 7.0084,2.70582 12.3828,7.83755 15.7685,15.05648 2.4672,5.26058 2.6093,6.41864 2.5853,21.06658 -0.024,14.95461 -0.1224,15.68599 -2.785,20.7859 -6.012,11.51535 -13.2943,16.43827 -26.9384,18.21049 -9.0651,1.17747 -17.8373,1.23537 -19.58215,0.12925 z m 24.29735,-10.47509 c 2.7011,-0.81432 4.9908,-2.53899 7.1781,-5.40665 7.7182,-10.11924 8.301,-33.68226 1.095,-44.26958 -3.785,-5.56115 -6.8455,-7.17739 -14.6481,-7.73566 l -7.0914,-0.50739 -0.25,17.38436 c -0.3332,23.1738 -0.1025,38.52325 0.6068,40.37178 0.7067,1.84165 7.2709,1.92333 13.1096,0.16314 z M 187.47441,655.07411 c -16.08913,-0.94666 -45.25552,-3.67186 -58,-5.4193 -15.27932,-2.095 -44.836464,-8.45506 -46.449996,-9.99503 -1.45646,-1.39006 2.374464,-1.13754 23.571356,1.55372 29.89418,3.79551 55.35049,4.87544 97.37864,4.13108 42.13213,-0.7462 52.68433,-1.47411 81.85471,-5.64648 51.32578,-7.34136 87.18862,-19.18974 109.23901,-36.09044 3.60993,-2.76687 6.79799,-4.7962 7.08456,-4.50962 1.63568,1.63568 -2.64923,8.81943 -9.08015,15.22312 -5.73867,5.71436 -9.10913,8.04954 -17.59813,12.19263 -5.775,2.81851 -14.55,6.53504 -19.5,8.25896 -31.01396,10.8011 -78.1125,18.32387 -121.84959,19.46233 -11.63272,0.30279 -25.65041,0.68826 -31.15041,0.85659 -5.5,0.16833 -12.475,0.16043 -15.5,-0.0176 z m 317.94457,-5.68248 c -3.54451,-2.9488 -7.45533,-6.46345 -8.6907,-7.81032 l -2.24612,-2.44888 3.15626,-4.93967 c 7.92923,-12.40955 12.33667,-25.68644 13.90542,-41.88845 0.48201,-4.97817 0.88857,-60.46372 0.90347,-123.30122 l 0.0271,-114.25 h 19.04585 19.04584 l -0.33909,117.75 -0.3391,117.75 -2.72626,10.39428 c -3.23024,12.31578 -8.88409,24.82485 -15.25669,33.75525 -4.55956,6.38965 -17.77947,20.35047 -19.27046,20.35047 -0.42402,0 -3.67101,-2.41266 -7.21552,-5.36146 z M 151.47441,624.73836 C 78.905523,619.37219 30.220233,608.43224 16.108674,594.32068 c -4.569905,-4.5699 -5.307386,-8.25745 -2.789707,-13.94908 3.39243,-7.66915 14.463762,-14.14176 36.937381,-21.5946 10.485213,-3.47718 34.237211,-9.02391 38.641813,-9.02391 3.052831,0 0.656994,1.81326 -4.685509,3.54617 -10.933972,3.54658 -23.214044,10.16149 -27.504078,14.81562 -9.155942,9.93303 -6.122723,16.15754 11.26584,23.1188 14.97119,5.9935 47.734456,12.60312 79.499996,16.03823 20.41942,2.20815 67.13012,3.01493 91.5,1.58039 56.76386,-3.34143 96.64519,-11.34484 119.41073,-23.96343 2.5241,-1.39907 6.89372,-4.92697 9.71027,-7.83977 2.81654,-2.91281 5.41066,-5.29601 5.76469,-5.29601 0.35404,0 1.53541,1.4625 2.62527,3.25 12.80855,21.00754 -34.88086,40.53051 -118.01096,48.31104 -20.11055,1.88223 -88.49651,2.79249 -107,1.42423 z m 472.99242,-28.89124 c -11.33276,-1.60274 -22.71289,-6.82846 -28.27308,-12.98292 -2.01338,-2.22857 -5.13638,-6.87776 -6.94001,-10.33153 l -3.27933,-6.27958 v -17.5 -17.5 l 3.5,-6.97857 c 4.94004,-9.84982 15.20248,-20.02045 25,-24.77633 13.85252,-6.72425 30.99834,-10.13242 57.08534,-11.34719 l 15.09954,-0.70312 -0.36828,-13.5974 c -0.42578,-15.72009 -1.6439,-19.1347 -9.1983,-25.78435 -5.93931,-5.22799 -9.93201,-6.41239 -23.69431,-7.02872 -13.79667,-0.61787 -25.43456,0.74498 -40.62376,4.75724 -6.15987,1.62714 -11.84211,2.95844 -12.62721,2.95844 -0.95696,0 -2.12712,-2.7897 -3.55023,-8.46381 -2.7393,-10.92192 -2.71613,-11.20075 1.12721,-13.56395 4.81297,-2.9594 22.83966,-8.52791 34.25,-10.57996 14.06263,-2.52903 43.40421,-2.59792 52.38747,-0.123 15.19722,4.18689 26.33336,12.03926 31.90865,22.49959 6.362,11.93632 6.28661,10.99969 6.92215,86.00949 l 0.5785,68.27836 -14.39839,-0.27836 -14.39838,-0.27836 -1.31248,-7.97914 c -0.72186,-4.38853 -1.50397,-8.17064 -1.73801,-8.40469 -0.23405,-0.23404 -3.52785,1.63736 -7.31956,4.15867 -8.80133,5.85249 -21.12637,12.05268 -28.04053,14.10596 -6.3167,1.87586 -24.19818,2.83031 -32.097,1.71323 z m 37.82011,-28.1802 c 3.47189,-1.17682 10.33439,-4.78057 15.25,-8.00833 l 8.93747,-5.86866 v -21.51842 -21.51842 l -10.25,0.008 c -29.17779,0.0234 -44.65177,5.19273 -52.22857,17.44791 -2.78115,4.49841 -3.02143,5.609 -3.02143,13.96547 0,10.75988 1.89372,16.62922 6.94498,21.5251 7.4217,7.19338 20.42206,8.69406 34.36755,3.96715 z m 289.17989,28.17582 c -11.31442,-1.59115 -22.70974,-6.8206 -28.26737,-12.97222 -13.03882,-14.43243 -15.51763,-41.40405 -5.54984,-60.38724 1.80725,-3.44181 6.19248,-9.15731 9.79809,-12.77036 13.52758,-13.55549 34.27593,-19.84661 71.11204,-21.56192 l 15.09955,-0.70312 -0.3683,-13.5974 c -0.3121,-11.52225 -0.6943,-14.20784 -2.5048,-17.59739 -2.8954,-5.4208 -7.8038,-9.93362 -13.81179,-12.69878 -4.62024,-2.12644 -6.29119,-2.29592 -22,-2.23147 -17.54354,0.072 -23.61703,0.9895 -41.73692,6.30523 -3.7053,1.087 -6.93488,1.65605 -7.17684,1.26455 -0.24196,-0.3915 -1.56128,-5.12785 -2.93182,-10.52523 l -2.4919,-9.81342 6.38466,-2.89494 c 7.93964,-3.60001 21.15392,-7.47145 32.95282,-9.65434 13.09845,-2.42331 42.65659,-2.36679 51.49999,0.0985 15.8267,4.41197 27.1582,12.64072 32.8505,23.85534 4.601,9.06483 5.114,18.16601 5.1332,91.07281 l 0.016,61.77822 -13.7479,-0.27822 -13.7479,-0.27822 -1.1966,-7.86115 c -0.6581,-4.32363 -1.4412,-8.10574 -1.7401,-8.40468 -0.2989,-0.29895 -3.6416,1.51656 -7.4282,4.03447 -8.5136,5.66119 -18.98707,10.98508 -26.76495,13.60525 -6.72832,2.26661 -24.5899,3.45219 -33.38192,2.21576 z m 37.82011,-28.17582 c 3.47189,-1.17682 10.33439,-4.78057 15.24996,-8.00833 l 8.9375,-5.86866 v -21.51842 -21.51842 h -10.0394 c -13.35101,0 -28.22165,1.72707 -34.82076,4.04407 -7.76149,2.72512 -15.43554,8.88144 -18.26273,14.65084 -3.0253,6.17367 -3.33058,19.31946 -0.61239,26.37091 5.14516,13.34744 21.05882,18.11497 39.54782,11.84801 z M 774.31052,506.00059 c -19.44467,-63.26073 -26.37835,-87.0919 -25.60928,-88.01951 0.79812,-0.96266 5.44634,-1.20587 19.11268,-1 l 18.05809,0.27201 3.721,11.5 c 12.20501,37.72042 30.07197,97.58565 32.82983,110 4.163,18.73955 3.90785,18.06297 5.60358,14.85887 2.42871,-4.58909 11.35553,-31.72122 16.0371,-48.74309 6.33418,-23.03067 9.74377,-38.26792 14.33349,-64.05553 2.37346,-13.33545 4.50822,-22.71703 5.28071,-23.20707 0.71318,-0.4524 9.05919,-0.82945 18.54669,-0.83787 l 17.25,-0.0153 v 2.48057 c 0,3.81886 -7.40934,38.43477 -12.58199,58.78217 -7.93079,31.19699 -24.44812,78.49585 -37.31399,106.85198 -3.6915,8.13601 -2.77283,7.88612 -28.97902,7.88278 l -19.625,-0.002 z m -591.85263,67.79277 c -35.42582,-2.45291 -65.31587,-11.89372 -69.09075,-21.82241 -2.34358,-6.1641 3.405,-11.34555 18.01969,-16.24192 11.15683,-3.73788 12.32768,-3.78076 11.48433,-0.42058 -3.36347,13.40114 55.34999,19.58737 107.29651,11.3051 l 13.19327,-2.10351 7.80673,4.27898 c 9.55787,5.23879 15.30674,8.98473 15.30674,9.97381 0,1.92372 -20.38685,8.66661 -34.5,11.41077 -17.80852,3.46269 -48.61667,5.06688 -69.51652,3.61976 z m 9.01652,-59.63586 c -1.375,-0.1531 -9.475,-0.78305 -18,-1.39989 -31.61802,-2.28775 -59.61773,-7.79448 -73.4375,-14.44304 -8.565313,-4.12068 -11.895829,-7.39894 -11.895829,-11.70917 0,-3.72361 2.415384,-6.02547 10.006394,-9.53609 5.250795,-2.42833 22.973675,-7.31622 26.527745,-7.31622 1.89336,0 1.89,0.0691 -0.12823,2.63486 -6.24571,7.94013 2.57628,13.76408 27.69221,18.28141 33.37344,6.00251 83.4425,4.61665 126.73521,-3.5079 l 14,-2.62732 9.8415,5.76852 c 11.05754,6.48129 11.08427,6.0588 -0.63652,10.05951 -21.18481,7.23112 -48.58988,11.57296 -81.2984,12.88027 -7.64862,0.3057 -16.83158,0.69929 -20.40658,0.87463 -3.575,0.17534 -7.625,0.19354 -9,0.0404 z m 139.0261,-8.07495 c 0.0143,-0.45621 6.65141,-5.10446 14.74902,-10.32946 30.00918,-19.36349 45.22488,-39.71843 45.22488,-60.5 0,-9.10914 -2.26834,-15.46992 -7.65229,-21.45816 -5.96225,-6.63146 -12.52249,-9.95636 -21.14798,-10.71834 -13.82511,-1.22132 -10.45582,-4.13757 5.80027,-5.02034 20.72824,-1.12564 37.68848,7.23228 45.04277,22.19684 2.17738,4.43056 2.45721,6.30971 2.45706,16.5 -1.7e-4,11.46354 -0.0126,11.52327 -3.92173,18.84109 -7.27257,13.61409 -23.22302,27.14931 -44.35611,37.63968 -15.74255,7.81452 -36.26673,15.10012 -36.19589,12.84869 z m -151.5261,-49.98254 c -54.72826,-1.94007 -106.886246,-13.57359 -113.871273,-25.3983 -1.503994,-2.54605 -1.465526,-2.89582 0.668138,-6.07511 4.421806,-6.58875 20.52316,-12.53428 46.996755,-17.35387 30.90193,-5.62577 46.64076,-6.04907 24.20638,-0.65104 -18.97078,4.56465 -28.28267,7.59051 -32.75,10.642 -4.19237,2.86367 -4.914617,6.12546 -1.95035,8.80808 6.36097,5.7566 41.28725,11.59324 82.15007,13.72837 37.12555,1.93984 95.63414,-2.85428 130.25707,-10.67312 l 6.7068,-1.51458 7.0432,4.18429 c 3.87377,2.30136 7.04321,4.51078 7.04321,4.90981 0,3.01609 -39.40583,12.37794 -65.32089,15.51862 -21.05403,2.55157 -69.92292,4.62836 -91.17911,3.87485 z m 897.82389,-10.59692 c -0.4368,-0.6875 -0.9619,-6.3125 -1.167,-12.5 l -0.3728,-11.25 h -3.892 c -3.1451,0 -3.8921,-0.36148 -3.8921,-1.88337 0,-2.48319 2.5891,-3.08636 13.3196,-3.10298 8.5775,-0.0133 8.8107,0.0481 8.5,2.23635 -0.2416,1.7009 -1.0803,2.32405 -3.4366,2.55344 -2.9565,0.28781 -3.1492,0.57116 -3.7413,5.5 -0.3434,2.85811 -0.6282,7.91906 -0.633,11.24656 -0.01,7.04359 -2.4256,10.75594 -4.6848,7.2 z m 21.3428,0.58333 c -0.3667,-0.36666 -0.6667,-7.11666 -0.6667,-15 v -14.33333 h 2.8089 c 4.1342,0 5.6749,1.68162 9.162,10 1.7292,4.125 3.4873,7.84667 3.9069,8.27038 0.4196,0.42372 2.2006,-3.01434 3.9577,-7.64012 3.5896,-9.44997 4.8297,-10.91396 8.854,-10.45252 l 2.8105,0.32226 0.2775,14.25 0.2774,14.25 h -2.385 c -2.185,0 -2.4389,-0.5155 -3.0274,-6.14669 -0.3534,-3.38068 -0.6583,-7.76818 -0.6775,-9.75 -0.032,-3.2501 -0.3839,-2.7701 -3.5943,4.89669 -6.2853,15.00975 -6.7051,14.93462 -13.9703,-2.5 -1.6183,-3.88347 -1.6892,-3.92717 -2.4339,-1.5 -0.4219,1.375 -0.812,4.9975 -0.8668,8.05 -0.1111,6.1834 -2.1625,9.55385 -4.433,7.28333 z M 235.47441,417.87303 c 0,-0.48403 1.87705,-4.57942 4.17121,-9.10087 3.58025,-7.05612 4.23574,-9.33546 4.62666,-16.08839 0.25671,-4.43448 -0.0671,-9.95406 -0.74199,-12.64913 -1.47868,-5.90461 -7.2148,-17.50104 -14.41238,-29.13679 -12.43776,-20.10711 -15.6435,-28.89501 -15.6435,-42.88344 0,-11.73492 1.11074,-16.45602 6.53145,-27.76132 7.20342,-15.02329 19.8857,-28.26367 39.94214,-41.69987 13.80723,-9.24972 42.63567,-23.15692 54.52641,-26.30421 1.375,-0.36394 -3.125,3.02822 -10,7.53813 -16.69579,10.95222 -26.85029,19.03348 -36.57093,29.10428 -13.0334,13.50289 -19.20506,24.22723 -22.09355,38.39141 -2.85208,13.98567 -0.38876,22.58634 13.99445,48.86156 11.27846,20.60347 13.00217,25.39469 12.51948,34.79922 -0.57051,11.11544 -5.28498,20.21867 -16.49161,31.84376 -11.40639,11.83232 -20.35784,18.46557 -20.35784,15.08566 z m -41.5967,-21.75436 c -12.87122,-8.65743 -21.94041,-16.14499 -32.28749,-26.65667 -14.15172,-14.37684 -22.1254,-27.60655 -26.1699,-43.42041 -2.3336,-9.12428 -2.61283,-26.2714 -0.55023,-33.7885 5.65167,-20.5974 21.26655,-38.53034 66.10432,-75.91763 16.35356,-13.63617 39.39417,-36.04348 47.49335,-46.18793 12.16267,-15.2341 18.77511,-31.63313 19.64596,-48.72247 0.28509,-5.59458 0.0796,-13.09697 -0.45661,-16.67197 -0.53622,-3.575 -0.63191,-6.867284 -0.21263,-7.316188 1.12189,-1.20118 5.55064,6.895048 8.71177,15.926038 2.55368,7.29556 2.75851,9.02054 2.71802,22.89015 -0.0352,12.07052 -0.45491,16.4891 -2.14887,22.62472 -6.47898,23.4672 -22.91791,45.90432 -54.81688,74.81835 -31.57922,28.6242 -48.04012,46.67148 -54.61317,59.87639 l -4.32094,8.68054 0.11564,15 c 0.13654,17.71004 1.93504,25.87121 8.82078,40.0267 4.34277,8.92772 17.69326,27.58589 27.71157,38.72869 2.84601,3.16546 4.94598,5.98397 4.66659,6.26336 -0.27939,0.27939 -4.96446,-2.48954 -10.41128,-6.15317 z"
       id="path1" />
  </g>
</svg>
