<?xml version="1.0" encoding="UTF-8" standalone="no"?>
<!-- Created with Inkscape (http://www.inkscape.org/) -->

<svg
   version="1.1"
   id="svg1"
   width="521.93335"
   height="268.39999"
   viewBox="0 0 521.93335 268.39999"
   sodipodi:docname="powered-by-mysql-bow.svg"
   inkscape:version="1.3 (0e150ed6c4, 2023-07-21)"
   xmlns:inkscape="http://www.inkscape.org/namespaces/inkscape"
   xmlns:sodipodi="http://sodipodi.sourceforge.net/DTD/sodipodi-0.dtd"
   xmlns="http://www.w3.org/2000/svg"
   xmlns:svg="http://www.w3.org/2000/svg">
  <defs
     id="defs1" />
  <sodipodi:namedview
     id="namedview1"
     pagecolor="#ffffff"
     bordercolor="#000000"
     borderopacity="0.25"
     inkscape:showpageshadow="2"
     inkscape:pageopacity="0.0"
     inkscape:pagecheckerboard="0"
     inkscape:deskcolor="#d1d1d1"
     inkscape:zoom="2.2991441"
     inkscape:cx="218.34212"
     inkscape:cy="134.18037"
     inkscape:window-width="1920"
     inkscape:window-height="1011"
     inkscape:window-x="0"
     inkscape:window-y="0"
     inkscape:window-maximized="1"
     inkscape:current-layer="group-R5">
    <inkscape:page
       x="0"
       y="0"
       inkscape:label="1"
       id="page1"
       width="521.93335"
       height="268.39999"
       margin="0"
       bleed="0" />
  </sodipodi:namedview>
  <g
     id="g1"
     inkscape:groupmode="layer"
     inkscape:label="1">
    <g
       id="group-R5">
      <path
         id="path2"
         d="m 16.5,179.512 h 128.422 v 507.109 l 198.801,-442.09 c 23.461,-53.5 55.57,-72.441 118.543,-72.441 62.98,0 93.843,18.941 117.308,72.441 l 198.805,442.09 V 179.512 h 128.418 v 506.289 c 0,49.39 -19.754,73.258 -60.508,85.597 -97.547,30.473 -162.992,4.133 -192.625,-61.726 L 458.559,273.359 269.633,709.672 C 241.234,775.531 174.555,801.871 77.0078,771.398 36.2539,759.059 16.5,735.191 16.5,685.801 V 179.512"
         style="fill:#231f20;fill-opacity:1;fill-rule:nonzero;stroke:none"
         transform="matrix(0.13333333,0,0,-0.13333333,0,268.4)" />
      <path
         id="path3"
         d="m 1013.59,592.281 h 128.37 v -279.39 c -1.2,-15.18 4.88,-50.801 75.21,-51.922 35.9,-0.559 277.01,0 279.27,0 v 332.66 h 128.67 c 0.6,0 -0.13,-453.629 -0.12,-455.57 C 1625.71,26.1719 1486.17,1.87109 1421.87,0 h -405.5 v 86.3984 c 0.71,0 405.19,-0.0898 406.21,0 82.65,8.7305 72.89,49.8126 72.88,63.6406 v 33.691 h -272.95 c -126.99,1.168 -207.86,56.598 -208.86,120.348 -0.09,5.902 2.74,285.391 -0.06,288.203"
         style="fill:#231f20;fill-opacity:1;fill-rule:nonzero;stroke:none"
         transform="matrix(0.13333333,0,0,-0.13333333,0,268.4)" />
      <path
         id="path4"
         d="m 1724.08,179.512 h 369.21 c 43.22,0 85.19,9.039 118.53,24.687 55.57,25.52 82.74,60.09 82.74,105.371 v 93.852 c 0,37.047 -30.86,71.617 -91.37,94.68 -32.11,12.347 -71.62,18.929 -109.9,18.929 H 1937.7 c -51.86,0 -76.56,15.641 -82.73,50.207 -1.24,4.133 -1.24,7.41 -1.24,11.532 v 58.449 c 0,3.293 0,6.59 1.24,10.711 6.17,26.332 19.76,33.75 65.45,37.871 3.7,0 8.64,0.82 12.34,0.82 h 366.74 v 85.598 h -360.56 c -51.86,0 -79.03,-3.278 -103.73,-10.699 -76.56,-23.872 -109.9,-61.739 -109.9,-127.598 V 559.02 c 0,-57.641 65.45,-107.032 175.34,-118.551 12.35,-0.821 24.7,-1.641 37.05,-1.641 h 133.36 c 4.94,0 9.88,0 13.57,-0.816 40.77,-3.301 58.05,-10.711 70.39,-25.532 7.43,-7.402 9.89,-14.832 9.89,-23.05 v -74.918 c 0,-9.043 -6.17,-20.59 -18.52,-30.453 -11.11,-9.879 -29.65,-16.457 -54.33,-18.118 -4.95,0 -8.66,-0.82 -13.6,-0.82 h -354.38 v -85.609"
         style="fill:#231f20;fill-opacity:1;fill-rule:nonzero;stroke:none"
         transform="matrix(0.13333333,0,0,-0.13333333,0,268.4)" />
      <path
         id="path5"
         d="m 3095.69,328.512 c 0,-88.082 65.43,-137.481 197.56,-147.364 12.36,-0.82 24.7,-1.636 37.05,-1.636 h 334.63 v 85.609 h -337.11 c -75.32,0 -103.71,18.938 -103.71,64.207 V 772.219 H 3095.69 V 328.512"
         style="fill:#231f20;fill-opacity:1;fill-rule:nonzero;stroke:none"
         transform="matrix(0.13333333,0,0,-0.13333333,0,268.4)" />
      <path
         id="path6"
         d="m 2515.12,331.441 c 0,-4.121 1.23,-8.261 2.48,-13.203 7.42,-35.468 40.82,-55.269 91.57,-55.269 h 116.66 l -107.17,96.75 h 149.12 l 93.46,-84.391 c 17.22,9.203 28.57,23.242 32.52,41.274 1.23,4.117 1.23,8.238 1.23,12.359 v 292.848 c 0,3.312 0,7.429 -1.23,11.55 -7.43,33.012 -40.84,51.969 -90.34,51.969 h -194.25 c -56.92,0 -94.05,-24.75 -94.05,-63.519 z m -138.59,-7.421 v 305.218 c 0,77.543 54.43,124.571 162.09,139.41 11.13,1.641 23.51,2.481 34.65,2.481 h 243.75 c 12.38,0 23.51,-0.84 35.9,-2.481 C 2960.55,753.809 3015,706.781 3015,629.238 V 324.02 c 0,-62.911 -23.12,-96.579 -76.4,-118.508 L 3065.08,91.3086 h -149.1 l -102.34,92.3824 -103.03,-6.5 h -137.34 c -23.52,0 -48.27,3.297 -75.49,10.719 -81.66,22.262 -121.25,65.149 -121.25,136.11"
         style="fill:#231f20;fill-opacity:1;fill-rule:nonzero;stroke:none"
         transform="matrix(0.13333333,0,0,-0.13333333,0,268.4)" />
      <path
         id="path7"
         d="m 3777.92,914.238 c -78.95,2.16 -139.24,-5.179 -190.81,-26.937 -14.64,-6.172 -38,-6.332 -40.39,-24.68 8.05,-8.441 9.3,-21.062 15.71,-31.43 12.3,-19.921 33.08,-46.621 51.62,-60.613 20.27,-15.289 41.15,-31.656 62.85,-44.898 38.63,-23.551 81.78,-37.008 118.96,-60.602 21.94,-13.906 43.72,-31.43 65.1,-47.129 10.57,-7.758 17.68,-19.828 31.43,-24.687 0,0.738 0,1.476 0,2.25 -7.23,9.199 -9.08,21.828 -15.73,31.418 -9.7,9.73 -19.45,19.449 -29.17,29.179 -28.52,37.871 -64.75,71.129 -103.25,98.77 -30.7,22.031 -99.41,51.801 -112.22,87.543 -0.76,0.738 -1.51,1.476 -2.25,2.25 21.76,2.437 47.25,10.308 67.34,15.699 33.75,9.059 63.91,6.719 98.75,15.719 15.73,4.469 31.43,8.969 47.15,13.461 0,2.988 0,6 0,8.98 -17.61,18.071 -30.17,42.02 -49.39,58.36 -50.26,42.8 -105.12,85.559 -161.6,121.219 -31.33,19.78 -70.06,32.62 -103.26,49.38 -11.18,5.64 -30.79,8.56 -38.17,17.96 -17.44,22.24 -26.93,50.42 -40.39,76.32 -28.18,54.25 -55.84,113.51 -80.8,170.59 -17.03,38.93 -28.16,77.32 -49.4,112.24 -101.91,167.57 -211.62,268.71 -381.58,368.12 -36.15,21.14 -79.68,29.49 -125.7,40.41 -24.69,1.49 -49.38,2.99 -74.06,4.49 -15.08,6.3 -30.76,24.73 -44.9,33.67 -56.29,35.57 -200.71,112.93 -242.41,11.22 -26.33,-64.2 39.36,-126.85 62.83,-159.37 16.51,-22.83 37.6,-48.42 49.4,-74.08 7.73,-16.86 9.08,-33.77 15.7,-51.63 16.33,-43.97 30.53,-91.79 51.62,-132.43 10.69,-20.55 22.44,-42.22 35.92,-60.61 8.28,-11.27 22.44,-16.24 24.69,-33.66 -13.87,-19.4 -14.65,-49.51 -22.44,-74.08 -35.08,-110.61 -21.86,-248.1 29.18,-329.97 15.66,-25.13 52.54,-79.032 103.26,-58.36 44.35,18.07 34.43,74.07 47.13,123.45 2.87,11.21 1.11,19.44 6.74,26.94 0,-0.75 0,-1.5 0,-2.24 13.45,-26.93 26.93,-53.88 40.41,-80.81 29.9,-48.15 82.97,-98.469 127.93,-132.441 23.32,-17.617 41.68,-48.071 71.83,-58.36 0,0.743 0,1.512 0,2.25 -0.76,0 -1.5,0 -2.24,0 -5.84,9.102 -14.98,12.871 -22.45,20.192 -17.57,17.23 -37.1,38.66 -51.64,58.359 -40.89,55.55 -77.05,116.32 -109.98,179.59 -15.72,30.2 -29.39,63.53 -42.65,94.27 -5.1,11.86 -5.04,29.78 -15.71,35.92 -14.51,-22.53 -35.89,-40.74 -47.12,-67.34 -17.97,-42.53 -20.3,-94.38 -26.94,-148.15 -3.94,-1.42 -2.19,-0.43 -4.49,-2.25 -31.27,7.55 -42.27,39.73 -53.87,67.35 -29.39,69.82 -34.84,182.25 -8.98,262.62 6.68,20.79 36.91,86.29 24.68,105.5 -5.83,19.17 -25.11,30.24 -35.91,44.89 -13.34,18.11 -26.68,41.95 -35.92,62.85 -24.04,54.46 -35.27,115.57 -60.61,170.6 -12.09,26.3 -32.55,52.93 -49.37,76.32 -18.61,25.91 -39.45,44.98 -53.87,76.32 -5.14,11.14 -12.11,28.96 -4.49,40.4 2.42,7.72 5.84,10.95 13.48,13.47 13,10.04 49.27,-3.34 62.85,-8.98 35.97,-14.95 66.01,-29.18 96.5,-49.38 14.65,-9.71 29.45,-28.47 47.15,-33.67 6.72,0 13.46,0 20.19,0 31.61,-7.26 67,-2.26 96.53,-11.23 52.17,-15.85 98.92,-40.52 141.41,-67.33 129.37,-81.7 235.15,-197.98 307.51,-336.7 11.65,-22.34 16.68,-43.66 26.94,-67.35 20.68,-47.77 46.74,-96.93 67.32,-143.66 20.55,-46.6 40.57,-93.64 69.59,-132.43 15.28,-20.4 74.22,-31.33 101.02,-42.65 18.77,-7.94 49.55,-16.21 67.32,-26.94 33.99,-20.48 66.92,-44.891 98.77,-67.329 15.94,-11.23 64.9,-35.84 67.35,-56.133"
         style="fill:#231f20;fill-opacity:1;fill-rule:nonzero;stroke:none"
         transform="matrix(0.13333333,0,0,-0.13333333,0,268.4)" />
      <path
         id="path8"
         d="m 2774.58,1769.46 c -16.47,0.3 -28.11,-1.79 -40.42,-4.48 0,-0.75 0,-1.5 0,-2.25 0.75,0 1.51,0 2.25,0 7.85,-16.13 21.72,-26.51 31.43,-40.4 7.48,-15.71 14.96,-31.43 22.44,-47.14 0.74,0.75 1.5,1.5 2.24,2.24 13.91,9.8 20.28,25.47 20.2,49.39 -5.57,5.86 -6.39,13.21 -11.21,20.2 -6.43,9.32 -18.85,14.61 -26.93,22.44"
         style="fill:#231f20;fill-opacity:1;fill-rule:evenodd;stroke:none"
         transform="matrix(0.13333333,0,0,-0.13333333,0,268.4)" />
      <path
         id="path9"
         d="m 3800.18,275.371 v 31.051 h 20.94 c 10.84,0 23.96,-2.031 23.96,-14.641 0,-15.14 -11.85,-16.41 -25.48,-16.41 z m 45.18,-61.84 h 21.19 l -31.04,47.457 c 16.64,1.762 29.26,9.852 29.26,29.543 0,21.93 -13.87,31.028 -40.62,31.028 H 3782 V 213.531 h 18.18 v 46.699 h 16.9 z m 47.93,54.028 c 0,-42.911 -32.8,-74.957 -73.44,-74.957 -41.13,0 -73.44,32.046 -73.44,74.957 0,42.89 32.31,74.961 73.44,74.961 40.64,0 73.44,-32.071 73.44,-74.961 z m -168.07,0 c 0,-56.547 44.67,-94.649 94.63,-94.649 49.98,0 94.65,38.102 94.65,94.649 0,56.519 -44.67,94.632 -94.65,94.632 -49.96,0 -94.63,-38.113 -94.63,-94.632"
         style="fill:#231f20;fill-opacity:1;fill-rule:evenodd;stroke:none"
         transform="matrix(0.13333333,0,0,-0.13333333,0,268.4)" />
      <path
         id="path10"
         d="m 5.4023437,-9.0830203 h 6.7265623 c 1.675782,0 3,-0.4921875 4.148438,-1.5234377 1.289062,-1.171875 1.851562,-2.554687 1.851562,-4.523437 0,-4.03125 -2.378906,-6.292969 -6.609375,-6.292969 H 2.671875 V -9.890625e-4 h 2.7304687 z m 0,-2.4023437 v -7.523438 h 5.7070313 c 2.613281,0 4.171875,1.40625 4.171875,3.761719 0,2.34375 -1.558594,3.761719 -4.171875,3.761719 z M 27.591797,-15.83302 c -4.347656,0 -6.9375,3.082031 -6.9375,8.2499997 0,5.203125 2.589844,8.26171874 6.960937,8.26171874 4.347657,0 6.972657,-3.09375004 6.972657,-8.14453124 0,-5.3437502 -2.53125,-8.3671872 -6.996094,-8.3671872 z m 0.02344,2.261718 c 2.765625,0 4.40625,2.261719 4.40625,6.0820317 0,3.6445312 -1.699218,5.90625 -4.40625,5.90625 -2.730468,0 -4.40625,-2.2617188 -4.40625,-6 0,-3.7265627 1.675782,-5.9882817 4.40625,-5.9882817 z M 52.212891,-9.890625e-4 56.736328,-15.399427 H 53.970703 L 50.923828,-3.4111453 47.888672,-15.399427 H 44.900391 L 41.958984,-3.4111453 38.818359,-15.399427 h -2.707031 l 4.464844,15.3984379375 h 2.765625 L 46.306641,-12.071302 49.423828,-9.890625e-4 Z M 72.999023,-6.8798953 c 0,-2.34375 -0.175781,-3.7617187 -0.621093,-4.8984377 -0.996094,-2.53125 -3.339844,-4.054687 -6.222657,-4.054687 -4.289062,0 -7.054687,3.257812 -7.054687,8.3437497 0,5.0742187 2.648437,8.16796874 6.996094,8.16796874 3.527343,0 5.964843,-2.00390624 6.585937,-5.35546874 h -2.472656 c -0.679688,2.0273437 -2.0625,3.09375 -4.03125,3.09375 -1.546875,0 -2.871094,-0.7148438 -3.691406,-2.0039063 -0.597657,-0.8789062 -0.796875,-1.7578125 -0.832032,-3.2929687 z M 61.713867,-8.8720828 c 0.210938,-2.8476562 1.945313,-4.6992192 4.40625,-4.6992192 2.507813,0 4.230469,1.933594 4.230469,4.6992192 z M 76.294922,-15.399427 V -9.890625e-4 h 2.472656 V -7.9931766 c 0.02344,-3.7031254 1.546875,-5.3437504 4.933594,-5.2617184 v -2.496094 c -0.410156,-0.05859 -0.644531,-0.08203 -0.9375,-0.08203 -1.59375,0 -2.800781,0.9375 -4.207031,3.222656 v -2.789063 z m 22.828128,8.5195317 c 0,-2.34375 -0.17578,-3.7617187 -0.6211,-4.8984377 -0.99609,-2.53125 -3.33984,-4.054687 -6.22265,-4.054687 -4.28907,0 -7.05469,3.257812 -7.05469,8.3437497 0,5.0742187 2.64844,8.16796874 6.99609,8.16796874 3.52735,0 5.96485,-2.00390624 6.58594,-5.35546874 h -2.47266 c -0.67968,2.0273437 -2.0625,3.09375 -4.03125,3.09375 -1.54687,0 -2.87109,-0.7148438 -3.6914,-2.0039063 -0.59766,-0.8789062 -0.79688,-1.7578125 -0.83203,-3.2929687 z M 87.83789,-8.8720828 c 0.21094,-2.8476562 1.94531,-4.6992192 4.40625,-4.6992192 2.50781,0 4.23047,1.933594 4.23047,4.6992192 z m 30.16992,-12.5507812 h -2.4375 v 7.96875 c -1.03125,-1.558594 -2.67187,-2.378906 -4.73437,-2.378906 -3.9961,0 -6.60938,3.199218 -6.60938,8.1093747 0,5.1914062 2.53125,8.40234374 6.70313,8.40234374 2.10937,0 3.58593,-0.796875 4.89843,-2.70703124 v 2.0273437375 h 2.17969 z m -6.76172,7.875 c 2.64844,0 4.32422,2.320312 4.32422,6.0234374 0,3.5625 -1.71094,5.90625 -4.28906,5.90625 -2.70703,0 -4.5,-2.3789062 -4.5,-5.9648437 0,-3.5859377 1.79297,-5.9648437 4.46484,-5.9648437 z m 18.30469,-7.875 V -9.890625e-4 h 2.20313 V -1.9697391 c 1.18359,1.79296879 2.74218,2.64843754 4.88671,2.64843754 4.05469,0 6.69141,-3.32812504 6.69141,-8.43750004 0,-4.9921874 -2.49609,-8.0742184 -6.57422,-8.0742184 -2.12109,0 -3.62109,0.785156 -4.76953,2.519531 v -8.109375 z m 6.72656,7.875 c 2.74219,0 4.5,2.378906 4.5,6.0585937 0,3.4921875 -1.8164,5.8710937 -4.5,5.8710937 -2.61328,0 -4.28906,-2.34375 -4.28906,-5.9648437 0,-3.6093747 1.67578,-5.9648437 4.28906,-5.9648437 z m 19.43262,-1.851563 -4.26562,11.9882817 -3.9375,-11.9882817 h -2.61329 l 5.20313,15.45703169 -0.9375,2.43750001 c -0.41016,1.0898437 -0.94922,1.5 -1.96875,1.5 -0.41016,0 -0.76172,-0.058594 -1.30078,-0.1757813 v 2.203125 c 0.5039,0.2578125 1.00781,0.3867188 1.65234,0.3867188 0.78516,0 1.64063,-0.2695313 2.28516,-0.7382813 0.76172,-0.5625 1.20703,-1.2070312 1.67578,-2.4375 l 6.84375,-18.6328129 z"
         style="fill:#231f20;fill-opacity:1;fill-rule:nonzero;stroke:none"
         aria-label="Powered by"
         transform="matrix(1.3333333,0,0,1.3333333,0,145.9896)"
         sodipodi:nodetypes="cscssccccccssscssssssssssccccccccccccccccsssccsccccsccccccccscccccsssccsccccscccccsssccccsssssccccssscccsssssccccccsccscccc" />
    </g>
  </g>
</svg>
