<?xml version="1.0" encoding="UTF-8" standalone="no"?>
<!-- Generator: Adobe Illustrator 16.0.3, SVG Export Plug-In . SVG Version: 6.00 Build 0)  -->

<svg
   version="1.1"
   id="Layer_1"
   x="0px"
   y="0px"
   width="731.177"
   height="776.86603"
   viewBox="0 50 731.177 578.86601"
   enable-background="new 0 0 1000 1405.488"
   xml:space="preserve"
   inkscape:version="1.3 (0e150ed6c4, 2023-07-21)"
   sodipodi:docname="The_C_Programming_Language_logo_with_Helvetica_LT_Black_and_CG_Times_Bold.svg"
   xmlns:inkscape="http://www.inkscape.org/namespaces/inkscape"
   xmlns:sodipodi="http://sodipodi.sourceforge.net/DTD/sodipodi-0.dtd"
   xmlns="http://www.w3.org/2000/svg"
   xmlns:svg="http://www.w3.org/2000/svg"
   xmlns:rdf="http://www.w3.org/1999/02/22-rdf-syntax-ns#"
   xmlns:cc="http://creativecommons.org/ns#"
   xmlns:dc="http://purl.org/dc/elements/1.1/"><metadata
     id="metadata187"><rdf:RDF><cc:Work
         rdf:about=""><dc:format>image/svg+xml</dc:format><dc:type
           rdf:resource="http://purl.org/dc/dcmitype/StillImage" /></cc:Work></rdf:RDF></metadata><defs
     id="defs185" /><sodipodi:namedview
     pagecolor="#ffffff"
     bordercolor="#666666"
     borderopacity="1"
     objecttolerance="10"
     gridtolerance="10"
     guidetolerance="10"
     inkscape:pageopacity="0"
     inkscape:pageshadow="2"
     inkscape:window-width="1920"
     inkscape:window-height="1011"
     id="namedview183"
     showgrid="false"
     fit-margin-top="10"
     fit-margin-left="10"
     fit-margin-right="10"
     fit-margin-bottom="10"
     inkscape:zoom="0.70710678"
     inkscape:cx="333.04729"
     inkscape:cy="290.62089"
     inkscape:window-x="0"
     inkscape:window-y="0"
     inkscape:window-maximized="1"
     inkscape:current-layer="g1809"
     inkscape:showpageshadow="2"
     inkscape:pagecheckerboard="0"
     inkscape:deskcolor="#d1d1d1" /><g
     id="g1809"><g
       aria-label="PROGRAMMING LANGUAGE"
       id="text868"
       style="font-weight:bold;font-size:87.3333px;line-height:88px;font-family:'Times New Roman';-inkscape-font-specification:'Times New Roman,  Bold';letter-spacing:0px;fill:#1b75b3"
       transform="translate(1e-5)"><path
         d="m 15.11995,573.88 q 2.707332,-0.17467 4.279331,-0.87333 1.572,-0.69867 2.270666,-2.27067 0.786,-1.572 0.786,-4.27933 v -39.82398 q 0,-4.10467 -1.746666,-5.67667 -1.746666,-1.65933 -5.589331,-1.834 v -2.62 h 30.304654 q 5.851331,0 10.567329,1.74667 4.803331,1.65933 7.597997,5.24 2.881999,3.58066 2.881999,9.08266 0,6.288 -3.405999,10.218 -3.318665,3.84266 -8.73333,5.50199 -5.414664,1.572 -11.877328,1.572 h -5.676665 v 16.59333 q 0,2.70733 0.436667,4.10467 0.524,1.39733 2.183332,2.27066 1.659333,0.786 5.239998,1.048 v 2.62 H 15.11995 Z m 21.658657,-27.68465 q 5.938665,0 8.73333,-0.61134 2.794666,-0.69866 4.366665,-3.49333 1.571999,-2.882 1.571999,-9.432 0,-6.28799 -2.445332,-9.60666 -2.357999,-3.31866 -7.597997,-3.31866 -2.619999,0 -3.667998,1.13533 -0.960667,1.048 -0.960667,3.58066 z"
         style="font-family:'CG Times';-inkscape-font-specification:'CG Times Bold';text-align:center;text-anchor:middle;fill:#000000;fill-opacity:1"
         id="path1709" /><path
         d="m 67.083266,573.88 q 2.794665,-0.0873 4.453998,-0.69867 1.746666,-0.61133 2.532666,-2.09599 0.873333,-1.572 0.873333,-4.27934 v -39.91131 q 0,-2.882 -0.698667,-4.54133 -0.698666,-1.65934 -2.445332,-2.358 -1.659333,-0.786 -4.715998,-0.87334 v -2.62 H 97.91192 q 10.742,0 16.59333,3.93 5.85133,3.84267 5.85133,11.70266 0,5.85134 -3.58067,9.60667 -3.58066,3.668 -10.13066,5.15266 l 16.68066,23.84199 q 1.13533,1.572 2.27067,2.27067 1.22266,0.61133 2.79466,0.87333 v 2.62 H 110.31325 L 91.274589,548.55334 h -2.008665 v 16.506 q 0,3.58066 0.611333,5.41466 0.611333,1.74667 2.270665,2.53267 1.659333,0.786 4.890665,0.87333 v 2.62 H 67.083266 Z m 22.182658,-28.20865 q 6.025997,-0.0873 9.431996,-1.22267 3.406,-1.22267 4.978,-4.10467 1.65933,-2.88199 1.65933,-8.20933 0,-6.11333 -2.62,-9.16999 -2.53266,-3.144 -8.121995,-3.144 -2.095999,0 -3.318666,0.43667 -1.135332,0.43666 -1.571999,1.39733 -0.436666,0.96067 -0.436666,2.62 z"
         style="font-family:'CG Times';-inkscape-font-specification:'CG Times Bold';text-align:center;text-anchor:middle;fill:#000000;fill-opacity:1"
         id="path1711" /><path
         d="m 159.56918,577.89733 q -8.55866,0 -15.71999,-4.01733 -7.074,-4.10466 -11.26599,-11.26599 -4.10467,-7.24867 -4.10467,-16.15666 0,-8.908 4.10467,-16.06933 4.19199,-7.16133 11.26599,-11.17866 7.16133,-4.10467 15.71999,-4.10467 8.55867,0 15.63266,4.10467 7.16134,4.01733 11.266,11.17866 4.192,7.16133 4.192,16.06933 0,8.90799 -4.192,16.15666 -4.10466,7.16133 -11.266,11.26599 -7.07399,4.01733 -15.63266,4.01733 z m 0,-3.31866 q 4.80334,0 8.20933,-3.144 3.49334,-3.23133 5.32734,-9.51933 1.83399,-6.288 1.83399,-15.45799 0,-8.646 -1.83399,-14.934 -1.834,-6.37533 -5.32734,-9.69399 -3.49333,-3.406 -8.20933,-3.406 -4.71599,0 -8.20933,3.406 -3.49333,3.31866 -5.32733,9.69399 -1.834,6.288 -1.834,14.934 0,9.16999 1.834,15.45799 1.834,6.288 5.24,9.51933 3.49333,3.144 8.29666,3.144 z"
         style="font-family:'CG Times';-inkscape-font-specification:'CG Times Bold';text-align:center;text-anchor:middle;fill:#000000;fill-opacity:1"
         id="path1713" /><path
         d="m 229.95981,577.89733 q -9.34466,0 -16.76799,-3.75533 -7.42333,-3.84266 -11.70266,-10.82933 -4.27933,-6.98666 -4.27933,-16.33132 0,-9.17 3.93,-16.41866 4.01733,-7.24867 11.00399,-11.35333 6.98667,-4.10467 15.80733,-4.10467 3.31866,0 5.764,0.61133 2.53266,0.524 5.58933,1.572 0.524,0.17467 0.87333,0.34934 0.43667,0.17466 0.786,0.262 1.22267,0.524 2.358,0.87333 1.13533,0.34933 1.92133,0.34933 1.48467,0 2.27067,-0.87333 0.87333,-0.96067 1.65933,-3.144 h 2.44533 v 21.13466 h -2.44533 q -3.31867,-7.598 -8.03466,-12.66333 -4.716,-5.15266 -12.22667,-5.15266 -9.43199,0 -12.83799,8.20933 -3.406,8.20933 -3.406,20.26132 0,8.55867 2.096,14.84666 2.096,6.20067 6.026,9.51933 3.93,3.31867 9.43199,3.31867 3.406,0 5.24,-0.786 1.92133,-0.786 2.70733,-2.358 0.786,-1.65933 0.786,-4.36667 v -7.24866 q 0,-2.882 -1.22266,-4.36666 -1.13534,-1.48467 -3.05667,-1.92134 -1.92133,-0.43666 -4.80333,-0.43666 v -2.62 h 30.21732 v 2.62 q -3.05666,0.262 -4.54133,0.69866 -1.48467,0.43667 -2.27067,1.92134 -0.786,1.39733 -0.786,4.36666 v 13.09999 q -6.98666,2.358 -12.92532,3.49334 -5.93867,1.22266 -9.60667,1.22266 z"
         style="font-family:'CG Times';-inkscape-font-specification:'CG Times Bold';text-align:center;text-anchor:middle;fill:#000000;fill-opacity:1"
         id="path1715" /><path
         d="m 262.79713,573.88 q 2.79466,-0.0873 4.45399,-0.69867 1.74667,-0.61133 2.53267,-2.09599 0.87333,-1.572 0.87333,-4.27934 v -39.91131 q 0,-2.882 -0.69866,-4.54133 -0.69867,-1.65934 -2.44534,-2.358 -1.65933,-0.786 -4.71599,-0.87334 v -2.62 h 30.82865 q 10.742,0 16.59333,3.93 5.85133,3.84267 5.85133,11.70266 0,5.85134 -3.58067,9.60667 -3.58066,3.668 -10.13066,5.15266 l 16.68066,23.84199 q 1.13533,1.572 2.27067,2.27067 1.22266,0.61133 2.79466,0.87333 v 2.62 h -18.07799 l -19.03866,-27.94666 h -2.00867 v 16.506 q 0,3.58066 0.61134,5.41466 0.61133,1.74667 2.27066,2.53267 1.65933,0.786 4.89067,0.87333 v 2.62 h -29.95532 z m 22.18265,-28.20865 q 6.026,-0.0873 9.432,-1.22267 3.406,-1.22267 4.978,-4.10467 1.65933,-2.88199 1.65933,-8.20933 0,-6.11333 -2.62,-9.16999 -2.53266,-3.144 -8.122,-3.144 -2.09599,0 -3.31866,0.43667 -1.13533,0.43666 -1.572,1.39733 -0.43667,0.96067 -0.43667,2.62 z"
         style="font-family:'CG Times';-inkscape-font-specification:'CG Times Bold';text-align:center;text-anchor:middle;fill:#000000;fill-opacity:1"
         id="path1717" /><path
         d="m 326.2011,573.88 q 1.74667,-0.262 2.79467,-0.69867 1.048,-0.43666 1.92133,-1.57199 0.87333,-1.13534 1.74666,-3.31867 l 21.746,-53.53531 h 2.61999 l 23.57999,54.40864 q 1.048,2.44534 2.44534,3.58067 1.48466,1.048 3.668,1.13533 v 2.62 h -28.99466 v -2.62 q 3.84267,0 5.41467,-0.786 1.65933,-0.786 1.65933,-2.62 0,-1.572 -0.69867,-3.23133 l -3.23133,-8.29666 h -19.91199 l -3.23133,8.47133 q -0.61134,1.74666 -0.61134,3.05666 0,1.834 1.834,2.62 1.834,0.786 5.67667,0.786 v 2.62 H 326.2011 Z m 33.09932,-18.77666 -8.73333,-20.87266 -8.03466,20.87266 z"
         style="font-family:'CG Times';-inkscape-font-specification:'CG Times Bold';text-align:center;text-anchor:middle;fill:#000000;fill-opacity:1"
         id="path1719" /><path
         d="m 388.64442,573.88 q 3.23134,-0.262 4.978,-1.048 1.74667,-0.87333 2.44533,-2.53266 0.69867,-1.74667 0.69867,-4.80334 v -38.60131 q 0,-3.23134 -0.524,-4.716 -0.43667,-1.572 -2.18333,-2.27067 -1.65933,-0.786 -5.41467,-0.786 v -2.62 h 22.96866 l 17.20466,41.83265 17.90333,-41.83265 h 22.09532 v 2.62 q -3.144,0.0873 -4.80333,0.87334 -1.572,0.69866 -2.27067,2.44533 -0.69866,1.65933 -0.69866,4.89066 v 37.20399 q 0,3.93 0.61133,5.85133 0.69867,1.834 2.27067,2.62 1.572,0.69866 4.89066,0.87333 v 2.62 H 438.9484 v -2.62 q 3.23134,-0.0873 4.978,-1.048 1.834,-0.96066 2.53267,-2.882 0.786,-2.00866 0.786,-5.41466 V 523.92535 L 424.53841,576.5 h -2.18333 L 400.43442,524.36202 V 565.496 q 0,3.05667 0.61133,4.716 0.69867,1.65934 2.44533,2.53267 1.834,0.786 5.41467,1.13533 v 2.62 h -20.26133 z"
         style="font-family:'CG Times';-inkscape-font-specification:'CG Times Bold';text-align:center;text-anchor:middle;fill:#000000;fill-opacity:1"
         id="path1721" /><path
         d="m 471.08708,573.88 q 3.23133,-0.262 4.978,-1.048 1.74667,-0.87333 2.44533,-2.53266 0.69867,-1.74667 0.69867,-4.80334 v -38.60131 q 0,-3.23134 -0.524,-4.716 -0.43667,-1.572 -2.18333,-2.27067 -1.65934,-0.786 -5.41467,-0.786 v -2.62 h 22.96866 l 17.20466,41.83265 17.90332,-41.83265 h 22.09533 v 2.62 q -3.144,0.0873 -4.80333,0.87334 -1.572,0.69866 -2.27067,2.44533 -0.69866,1.65933 -0.69866,4.89066 v 37.20399 q 0,3.93 0.61133,5.85133 0.69867,1.834 2.27066,2.62 1.572,0.69866 4.89067,0.87333 v 2.62 h -29.86799 v -2.62 q 3.23133,-0.0873 4.978,-1.048 1.834,-0.96066 2.53266,-2.882 0.786,-2.00866 0.786,-5.41466 V 523.92535 L 506.98107,576.5 h -2.18334 L 482.87708,524.36202 V 565.496 q 0,3.05667 0.61133,4.716 0.69867,1.65934 2.44533,2.53267 1.834,0.786 5.41467,1.13533 v 2.62 h -20.26133 z"
         style="font-family:'CG Times';-inkscape-font-specification:'CG Times Bold';text-align:center;text-anchor:middle;fill:#000000;fill-opacity:1"
         id="path1723" /><path
         d="m 553.8791,573.88 q 3.23134,0 4.978,-0.524 1.74667,-0.61133 2.53267,-2.096 0.87333,-1.48466 0.87333,-4.27933 v -40.78465 q 0,-2.79467 -0.87333,-4.27933 -0.786,-1.572 -2.62,-2.18333 -1.834,-0.61134 -4.89067,-0.61134 v -2.62 h 31.09066 v 2.62 q -3.31867,0.0873 -5.06533,0.69867 -1.74667,0.524 -2.53267,2.00867 -0.786,1.48466 -0.786,4.36666 v 40.78465 q 0,2.79467 0.87333,4.27933 0.96067,1.48467 2.70734,2.096 1.83399,0.524 4.80333,0.524 v 2.62 H 553.8791 Z"
         style="font-family:'CG Times';-inkscape-font-specification:'CG Times Bold';text-align:center;text-anchor:middle;fill:#000000;fill-opacity:1"
         id="path1725" /><path
         d="m 599.46703,529.86402 v 35.02065 q 0,3.31867 0.69866,5.24 0.69867,1.834 2.44534,2.70733 1.74666,0.786 4.97799,1.048 v 2.62 H 587.8517 v -2.62 q 3.144,-0.262 4.80333,-1.048 1.74667,-0.87333 2.44533,-2.70733 0.69867,-1.834 0.69867,-5.24 v -39.38732 q -2.53267,-3.49333 -4.27933,-4.89066 -1.65934,-1.39733 -3.668,-1.48467 v -2.62 h 18.77666 l 30.91598,37.72799 v -27.24799 q 0,-2.882 -0.786,-4.454 -0.69866,-1.65933 -2.53266,-2.358 -1.74667,-0.786 -5.15267,-1.048 v -2.62 h 19.56266 v 2.62 q -2.882,0.34934 -4.45399,1.13534 -1.572,0.786 -2.27067,2.358 -0.69867,1.57199 -0.69867,4.36666 V 578.072 h -2.53266 z"
         style="font-family:'CG Times';-inkscape-font-specification:'CG Times Bold';text-align:center;text-anchor:middle;fill:#000000;fill-opacity:1"
         id="path1727" /><path
         d="m 685.92704,577.89733 q -9.34466,0 -16.768,-3.75533 -7.42333,-3.84266 -11.70266,-10.82933 -4.27933,-6.98666 -4.27933,-16.33132 0,-9.17 3.93,-16.41866 4.01733,-7.24867 11.004,-11.35333 6.98666,-4.10467 15.80732,-4.10467 3.31867,0 5.764,0.61133 2.53267,0.524 5.58933,1.572 0.524,0.17467 0.87333,0.34934 0.43667,0.17466 0.786,0.262 1.22267,0.524 2.358,0.87333 1.13534,0.34933 1.92134,0.34933 1.48466,0 2.27066,-0.87333 0.87333,-0.96067 1.65933,-3.144 h 2.44534 v 21.13466 h -2.44534 q -3.31866,-7.598 -8.03466,-12.66333 -4.716,-5.15266 -12.22666,-5.15266 -9.432,0 -12.838,8.20933 -3.40599,8.20933 -3.40599,20.26132 0,8.55867 2.09599,14.84666 2.096,6.20067 6.026,9.51933 3.93,3.31867 9.432,3.31867 3.406,0 5.24,-0.786 1.92133,-0.786 2.70733,-2.358 0.786,-1.65933 0.786,-4.36667 v -7.24866 q 0,-2.882 -1.22267,-4.36666 -1.13533,-1.48467 -3.05666,-1.92134 -1.92134,-0.43666 -4.80334,-0.43666 v -2.62 h 30.21733 v 2.62 q -3.05667,0.262 -4.54134,0.69866 -1.48466,0.43667 -2.27066,1.92134 -0.786,1.39733 -0.786,4.36666 v 13.09999 q -6.98666,2.358 -12.92533,3.49334 -5.93866,1.22266 -9.60666,1.22266 z"
         style="font-family:'CG Times';-inkscape-font-specification:'CG Times Bold';text-align:center;text-anchor:middle;fill:#000000;fill-opacity:1"
         id="path1729" /><path
         d="m 123.63161,663.25414 q 2.882,-0.17467 4.54133,-0.69867 1.65934,-0.61133 2.44534,-2.00867 0.87333,-1.39733 0.87333,-4.10466 v -40.52265 q 0,-2.882 -0.87333,-4.454 -0.786,-1.572 -2.44534,-2.18333 -1.65933,-0.69867 -4.54133,-0.786 v -2.62 h 31.00332 v 2.62 q -3.49333,0.0873 -5.24,0.61133 -1.74666,0.43667 -2.70733,2.00867 -0.87333,1.48466 -0.87333,4.80333 v 40.52265 q 0,3.58066 1.48467,4.978 1.48466,1.31 4.80333,1.31 6.11333,0 10.39266,-1.48467 4.36666,-1.572 7.68533,-5.41466 3.31866,-3.93 5.764,-10.91667 l 2.53266,0.61134 -3.84266,20.34866 h -51.00265 z"
         style="font-family:'CG Times';-inkscape-font-specification:'CG Times Bold';text-align:center;text-anchor:middle;fill:#000000;fill-opacity:1"
         id="path1731" /><path
         d="m 180.66024,663.25414 q 1.74666,-0.262 2.79466,-0.69867 1.048,-0.43667 1.92134,-1.572 0.87333,-1.13533 1.74666,-3.31866 l 21.74599,-53.53532 h 2.62 l 23.57999,54.40865 q 1.048,2.44533 2.44534,3.58066 1.48466,1.048 3.66799,1.13534 v 2.62 h -28.99465 v -2.62 q 3.84266,0 5.41466,-0.786 1.65934,-0.786 1.65934,-2.62 0,-1.572 -0.69867,-3.23133 l -3.23133,-8.29667 h -19.91199 l -3.23134,8.47133 q -0.61133,1.74667 -0.61133,3.05667 0,1.834 1.834,2.62 1.834,0.786 5.67666,0.786 v 2.62 h -18.42732 z m 33.09932,-18.77666 -8.73333,-20.87266 -8.03466,20.87266 z"
         style="font-family:'CG Times';-inkscape-font-specification:'CG Times Bold';text-align:center;text-anchor:middle;fill:#000000;fill-opacity:1"
         id="path1733" /><path
         d="m 255.06822,619.23815 v 35.02066 q 0,3.31866 0.69867,5.23999 0.69866,1.834 2.44533,2.70734 1.74666,0.786 4.978,1.048 v 2.62 h -19.73733 v -2.62 q 3.144,-0.262 4.80333,-1.048 1.74667,-0.87334 2.44534,-2.70734 0.69866,-1.83399 0.69866,-5.23999 v -39.38732 q -2.53266,-3.49333 -4.27933,-4.89066 -1.65933,-1.39734 -3.668,-1.48467 v -2.62 h 18.77666 l 30.91599,37.72798 v -27.24798 q 0,-2.882 -0.786,-4.454 -0.69867,-1.65933 -2.53267,-2.358 -1.74666,-0.786 -5.15266,-1.048 v -2.62 h 19.56266 v 2.62 q -2.882,0.34933 -4.454,1.13533 -1.572,0.786 -2.27067,2.358 -0.69866,1.572 -0.69866,4.36667 v 51.08998 h -2.53267 z"
         style="font-family:'CG Times';-inkscape-font-specification:'CG Times Bold';text-align:center;text-anchor:middle;fill:#000000;fill-opacity:1"
         id="path1735" /><path
         d="m 341.52819,667.27147 q -9.34466,0 -16.76799,-3.75533 -7.42333,-3.84267 -11.70266,-10.82933 -4.27933,-6.98667 -4.27933,-16.33133 0,-9.17 3.93,-16.41866 4.01733,-7.24866 11.00399,-11.35333 6.98666,-4.10466 15.80733,-4.10466 3.31866,0 5.764,0.61133 2.53266,0.524 5.58933,1.572 0.524,0.17467 0.87333,0.34933 0.43667,0.17467 0.786,0.262 1.22267,0.524 2.358,0.87334 1.13533,0.34933 1.92133,0.34933 1.48467,0 2.27067,-0.87333 0.87333,-0.96067 1.65933,-3.144 h 2.44533 v 21.13466 h -2.44533 q -3.31867,-7.598 -8.03466,-12.66333 -4.716,-5.15267 -12.22667,-5.15267 -9.43199,0 -12.83799,8.20933 -3.406,8.20933 -3.406,20.26133 0,8.55866 2.096,14.84666 2.096,6.20066 6.026,9.51933 3.93,3.31866 9.43199,3.31866 3.406,0 5.24,-0.786 1.92133,-0.786 2.70733,-2.358 0.786,-1.65933 0.786,-4.36666 v -7.24866 q 0,-2.882 -1.22266,-4.36667 -1.13534,-1.48467 -3.05667,-1.92133 -1.92133,-0.43667 -4.80333,-0.43667 v -2.62 h 30.21732 v 2.62 q -3.05666,0.262 -4.54133,0.69867 -1.48467,0.43666 -2.27067,1.92133 -0.786,1.39733 -0.786,4.36667 v 13.09999 q -6.98666,2.358 -12.92532,3.49333 -5.93867,1.22267 -9.60667,1.22267 z"
         style="font-family:'CG Times';-inkscape-font-specification:'CG Times Bold';text-align:center;text-anchor:middle;fill:#000000;fill-opacity:1"
         id="path1737" /><path
         d="m 405.19416,667.27147 q -6.89933,0 -12.22666,-2.358 -5.32733,-2.358 -8.384,-6.89933 -2.96933,-4.54133 -2.96933,-10.742 v -31.00332 q 0,-2.882 -0.786,-4.54133 -0.69867,-1.65933 -2.27067,-2.358 -1.572,-0.69866 -4.27933,-0.87333 v -2.62 h 30.12999 v 2.62 q -3.05667,0 -4.89067,0.61133 -1.83399,0.524 -2.70733,2.096 -0.87333,1.48467 -0.87333,4.454 v 33.53599 q 0,3.92999 1.572,6.89933 1.65933,2.96933 4.54133,4.54133 2.882,1.572 6.63733,1.572 8.384,0 11.96466,-4.89067 3.58067,-4.978 3.58067,-14.67199 v -25.23932 q 0,-3.75534 -0.69867,-5.58934 -0.61133,-1.83399 -2.44533,-2.53266 -1.74667,-0.786 -5.58933,-0.786 v -2.62 h 19.73732 v 2.62 q -3.92999,0 -5.58933,1.92133 -1.572,1.92133 -1.572,6.20067 v 26.02532 q 0,12.22666 -5.58933,18.42732 -5.502,6.20067 -17.29199,6.20067 z"
         style="font-family:'CG Times';-inkscape-font-specification:'CG Times Bold';text-align:center;text-anchor:middle;fill:#000000;fill-opacity:1"
         id="path1739" /><path
         d="m 429.64747,663.25414 q 1.74667,-0.262 2.79467,-0.69867 1.048,-0.43667 1.92133,-1.572 0.87333,-1.13533 1.74666,-3.31866 l 21.746,-53.53532 h 2.61999 l 23.58,54.40865 q 1.04799,2.44533 2.44533,3.58066 1.48466,1.048 3.668,1.13534 v 2.62 h -28.99466 v -2.62 q 3.84267,0 5.41467,-0.786 1.65933,-0.786 1.65933,-2.62 0,-1.572 -0.69867,-3.23133 l -3.23133,-8.29667 H 444.4068 l -3.23133,8.47133 q -0.61134,1.74667 -0.61134,3.05667 0,1.834 1.834,2.62 1.834,0.786 5.67667,0.786 v 2.62 h -18.42733 z m 33.09932,-18.77666 -8.73333,-20.87266 -8.03466,20.87266 z"
         style="font-family:'CG Times';-inkscape-font-specification:'CG Times Bold';text-align:center;text-anchor:middle;fill:#000000;fill-opacity:1"
         id="path1741" /><path
         d="m 519.33874,667.27147 q -9.34466,0 -16.76799,-3.75533 -7.42333,-3.84267 -11.70266,-10.82933 -4.27934,-6.98667 -4.27934,-16.33133 0,-9.17 3.93,-16.41866 4.01733,-7.24866 11.004,-11.35333 6.98666,-4.10466 15.80732,-4.10466 3.31867,0 5.764,0.61133 2.53267,0.524 5.58933,1.572 0.524,0.17467 0.87334,0.34933 0.43666,0.17467 0.786,0.262 1.22266,0.524 2.35799,0.87334 1.13534,0.34933 1.92134,0.34933 1.48466,0 2.27066,-0.87333 0.87334,-0.96067 1.65934,-3.144 h 2.44533 v 21.13466 h -2.44533 q -3.31867,-7.598 -8.03467,-12.66333 -4.716,-5.15267 -12.22666,-5.15267 -9.432,0 -12.83799,8.20933 -3.406,8.20933 -3.406,20.26133 0,8.55866 2.096,14.84666 2.096,6.20066 6.02599,9.51933 3.93,3.31866 9.432,3.31866 3.406,0 5.24,-0.786 1.92133,-0.786 2.70733,-2.358 0.786,-1.65933 0.786,-4.36666 v -7.24866 q 0,-2.882 -1.22267,-4.36667 -1.13533,-1.48467 -3.05666,-1.92133 -1.92133,-0.43667 -4.80333,-0.43667 v -2.62 h 30.21732 v 2.62 q -3.05667,0.262 -4.54133,0.69867 -1.48467,0.43666 -2.27067,1.92133 -0.786,1.39733 -0.786,4.36667 v 13.09999 q -6.98666,2.358 -12.92533,3.49333 -5.93866,1.22267 -9.60666,1.22267 z"
         style="font-family:'CG Times';-inkscape-font-specification:'CG Times Bold';text-align:center;text-anchor:middle;fill:#000000;fill-opacity:1"
         id="path1743" /><path
         d="m 552.0887,663.25414 q 3.05667,0 4.716,-0.69867 1.74667,-0.786 2.53267,-2.53267 0.786,-1.83399 0.786,-5.06533 v -37.90265 q 0,-3.406 -0.69867,-5.24 -0.69867,-1.83399 -2.44533,-2.53266 -1.65933,-0.786 -4.89067,-0.786 v -2.62 h 50.91532 v 17.99066 h -2.18334 q -1.048,-5.502 -2.96933,-8.55866 -1.92133,-3.144 -5.85133,-4.54134 -3.84266,-1.48466 -10.82933,-1.48466 -3.05666,0 -4.454,0.262 -1.31,0.17467 -1.834,0.96066 -0.43666,0.69867 -0.43666,2.358 v 20.52333 q 4.454,0 7.33599,-1.13533 2.882,-1.22267 4.454,-4.01734 1.65934,-2.79466 2.096,-7.77266 h 2.53267 v 30.04266 h -2.53267 q -0.69866,-4.978 -1.74666,-7.68533 -0.96067,-2.70734 -3.84267,-4.27934 -2.79466,-1.572 -8.29666,-1.572 v 17.99066 q 0,3.58067 0.43666,5.06533 0.43667,1.48467 2.00867,2.096 1.65933,0.61134 5.67666,0.61134 5.764,0 9.86867,-1.65934 4.10466,-1.65933 7.07399,-5.06533 2.96934,-3.49333 5.41467,-9.16999 l 2.70733,0.524 -4.10466,18.51466 H 552.0887 Z"
         style="font-family:'CG Times';-inkscape-font-specification:'CG Times Bold';text-align:center;text-anchor:middle;fill:#000000;fill-opacity:1"
         id="path1745" /></g><g
       aria-label="THE"
       id="text980"
       style="font-weight:bold;font-size:87.3333px;font-family:'CG Times';-inkscape-font-specification:'CG Times Bold';text-align:center;letter-spacing:0px;text-anchor:middle;fill:#1b75b3"><path
         d="m 286.42087,67.377964 q 3.31867,0 5.06534,-0.611333 1.83399,-0.611333 2.61999,-2.183333 0.786,-1.659332 0.786,-4.628664 V 13.405986 q -5.67666,0.08733 -9.08266,1.484666 -3.31866,1.397333 -5.24,4.628665 -1.92133,3.143999 -2.882,8.907996 h -2.35799 V 9.9999874 h 53.44797 V 28.427313 h -2.358 q -0.96066,-5.763997 -2.88199,-8.907996 -1.92134,-3.231332 -5.32734,-4.628665 -3.31866,-1.397333 -8.99532,-1.484666 v 46.548648 q 0,2.881999 0.78599,4.453998 0.786,1.571999 2.62,2.270666 1.834,0.611333 5.24,0.698666 v 2.619999 h -31.43999 z"
         id="path1748"
         style="fill:#000000;fill-opacity:1" /><path
         d="m 332.44551,67.377964 q 3.05666,0 4.71599,-0.611333 1.65934,-0.698666 2.44534,-2.357999 0.786,-1.659333 0.786,-4.715998 V 21.003983 q 0,-3.318665 -0.69867,-5.065331 -0.69867,-1.746666 -2.358,-2.445333 -1.65933,-0.785999 -4.89066,-0.873333 V 9.9999874 h 30.12998 v 2.6199986 q -3.05666,0.08733 -4.80333,0.786 -1.65933,0.698666 -2.358,2.270666 -0.69866,1.571999 -0.69866,4.541331 v 16.41866 h 21.04732 V 19.86865 q 0,-2.794665 -0.786,-4.366665 -0.786,-1.571999 -2.53266,-2.183332 -1.65934,-0.698667 -4.62867,-0.698667 V 9.9999874 h 30.04266 v 2.6199986 q -2.882,0 -4.62867,0.698667 -1.65933,0.611333 -2.44533,2.183332 -0.69867,1.572 -0.69867,4.366665 v 39.037984 q 0,3.056666 0.61134,4.890665 0.61133,1.746666 2.27066,2.707332 1.65933,0.873333 4.89067,0.873333 v 2.619999 h -30.04266 v -2.619999 q 3.31867,-0.08733 4.978,-0.698666 1.65933,-0.698667 2.27067,-2.445333 0.69866,-1.746666 0.69866,-5.327331 V 41.003308 H 354.7155 v 18.252659 q 0,3.318666 0.69866,4.977998 0.69867,1.659333 2.358,2.357999 1.65933,0.611333 4.80333,0.786 v 2.619999 h -30.12998 z"
         id="path1750"
         style="fill:#000000;fill-opacity:1" /><path
         d="m 400.30347,67.377964 q 3.05667,0 4.716,-0.698666 1.74667,-0.786 2.53267,-2.532666 0.786,-1.833999 0.786,-5.065331 V 21.17865 q 0,-3.405999 -0.69867,-5.239998 -0.69867,-1.834 -2.44533,-2.532666 -1.65933,-0.786 -4.89067,-0.786 V 9.9999874 h 50.91532 V 27.990647 h -2.18334 q -1.048,-5.501998 -2.96933,-8.558663 -1.92133,-3.143999 -5.85133,-4.541332 -3.84266,-1.484666 -10.82933,-1.484666 -3.05666,0 -4.454,0.262 -1.31,0.174667 -1.834,0.960666 -0.43666,0.698667 -0.43666,2.357999 v 20.523325 q 4.454,0 7.33599,-1.135333 2.882,-1.222666 4.454,-4.017331 1.65934,-2.794666 2.096,-7.772664 h 2.53267 v 30.042655 h -2.53267 q -0.69866,-4.977998 -1.74666,-7.685331 -0.96067,-2.707332 -3.84267,-4.279331 -2.79466,-1.572 -8.29666,-1.572 v 17.99066 q 0,3.580665 0.43666,5.065331 0.43667,1.484666 2.00867,2.095999 1.65933,0.611333 5.67666,0.611333 5.764,0 9.86867,-1.659332 4.10466,-1.659333 7.07399,-5.065332 2.96934,-3.493332 5.41467,-9.169996 l 2.70733,0.524 -4.10466,18.514659 h -51.43932 z"
         id="path1752"
         style="fill:#000000;fill-opacity:1" /></g><path
       d="m 536.84774,253.3202 c -9.08919,-88.49989 -67.92967,-140.64307 -173.17279,-140.64307 -96.15393,0 -171.73759,69.36478 -171.73759,180.82682 0,111.94041 68.88638,181.78356 182.74031,181.78356 90.89179,0 154.51605,-53.5783 164.56197,-142.5566 H 430.64787 c -4.3054,33.00808 -21.52704,58.36211 -57.88373,58.36211 -57.40533,0 -67.92961,-45.4459 -67.92961,-93.76204 0,-66.49452 23.91888,-100.45933 63.62421,-100.45933 35.39996,0 57.88373,20.57022 61.23236,56.44855 z"
       style="font-weight:900;font-size:123.472px;font-family:'Helvetica LT Std';-inkscape-font-specification:'Helvetica LT Std Heavy';fill:#000000;fill-opacity:1;stroke-width:1.0251"
       id="path1771" /></g></svg>
